<svg xmlns="http://www.w3.org/2000/svg" width="500" height="500" viewBox="0 0 100 100"><circle cx="13" cy="29" r="2" fill="#ee3e54"/><circle cx="77" cy="13" r="1" fill="#f1bc19"/><circle cx="50" cy="50" r="37" fill="#fce0a2"/><circle cx="83" cy="15" r="4" fill="#f1bc19"/><circle cx="87" cy="24" r="2" fill="#ee3e54"/><circle cx="81" cy="76" r="2" fill="#fbcd59"/><circle cx="15" cy="63" r="4" fill="#fbcd59"/><circle cx="25" cy="87" r="2" fill="#ee3e54"/><circle cx="18.5" cy="53.5" r="2.5" fill="#fff"/><circle cx="21" cy="67" r="1" fill="#f1bc19"/><circle cx="80" cy="34" r="1" fill="#fff"/><path fill="#fabf82" d="M69.121 70.526c-.405-2.146-1.28-3.403-3.342-4.026a5.245 5.245 0 0 1-.345-.123 16.092 16.092 0 0 0-.586-.238c-1.249-.528-8.673-3.267-8.673-3.267-.612-.155-1.01-.591-1.24-1.082-.38-.811-.233-2.914-.233-2.914s-3.104 1.062-5.041 1.424c-1.9.185-5.983-2.272-5.983-2.272s-.096 3.037-.225 3.712c-.102.53-.672.978-1.284 1.133l-7.124 2.583c-.788.206-1.544.5-2.209.911-1.793 1.107-2.701 2.769-3.163 4.16 0 0-.469 3.316-.45 3.435-.044.464-.09.975-.137 1.512 7.764 5.257 14 6.73 24.699 6.262 4.861-.213 12.099-2.613 15.891-4.527-.201-4.225-.555-6.683-.555-6.683z"/><path fill="#88cdd7" d="M65.779 66.541a5.245 5.245 0 0 1-.345-.123 16.092 16.092 0 0 0-.586-.238c-.773-.327-3.905-1.498-6.184-2.345l-.107-.028c-2.516 1.29-6.096 3.226-9.384 3.226-3.288 0-6.585-1.75-9.384-3.226l-.314.083-4.431 1.607c-.788.206-1.544.5-2.209.911-1.793 1.107-2.701 2.769-3.163 4.16 0 0-.469 3.316-.45 3.435-.044.464-.09 5.444-.137 5.981 7.764 5.257 14 6.73 24.699 6.262 4.861-.213 12.099-2.613 15.891-4.527-.201-4.224-.554-11.151-.554-11.151-.405-2.147-1.28-3.404-3.342-4.027z"/><path fill="#be7841" d="M38.536 46.356c-.158-.347-3.837-8.559-1.042-14.144 1.158-2.313 3.257-3.827 6.241-4.502 1.718-1.184 3.779-1.835 5.816-1.835 1.709 0 3.369.442 4.934 1.315.83.463 1.501.854 2.064 1.181 1.782 1.037 2.383 1.386 3.443 1.386.117 0 .24-.004.37-.012l.129-.008c.151-.01.3-.019.44-.019.925 0 1.184.492 1.239.905.139 1.044-.228 1.945-.551 2.739-.292.716-.543 1.333-.373 1.893 1.838 6.037-1.011 10.945-1.133 11.151l-.942 1.586.012-1.845c0-.049.016-4.724-1.094-7.714-1.42.793-3.144 1.209-5.026 1.209-3.247 0-6.837-1.185-10.403-3.43-3.17 2.491-3.168 9.86-3.168 9.936l.013 2.335-.969-2.127z"/><path fill="#472b29" d="M49.551 26.375c1.512 0 3.109.37 4.69 1.251 3.534 1.971 4.19 2.63 5.75 2.63.127 0 .259-.004.4-.013.184-.011.369-.026.539-.026.384 0 .692.079.744.47.245 1.842-1.346 3.266-.906 4.711 1.795 5.895-1.085 10.75-1.085 10.75s.035-5.382-1.354-8.449c-1.433.946-3.231 1.44-5.267 1.44-3.077 0-6.698-1.13-10.42-3.534-3.694 2.458-3.65 10.543-3.65 10.543s-6.996-15.36 4.949-17.971c1.517-1.069 3.48-1.802 5.61-1.802m0-1c-2.106 0-4.235.663-6.02 1.87-3.087.72-5.268 2.315-6.484 4.744-2.901 5.796.872 14.219 1.034 14.575l1.93 4.238-.02-4.657c-.009-1.965.479-7.202 2.717-9.315 3.542 2.169 7.109 3.312 10.354 3.312 1.741 0 3.355-.343 4.74-1 .896 2.894.881 6.956.881 7.002l-.024 3.692 1.884-3.176c.127-.214 3.083-5.306 1.181-11.552-.119-.389.102-.931.357-1.558.33-.81.74-1.818.583-2.994-.042-.314-.29-1.339-1.735-1.339-.15 0-.309.01-.471.02l-.127.008c-.12.007-.233.011-.341.011-.891 0-1.358-.252-3.191-1.318-.564-.328-1.239-.72-2.072-1.185-1.639-.914-3.38-1.378-5.176-1.378z"/><path fill="#00a5a5" d="M35.903 84.213a.3.3 0 0 1-.3-.3v-3.95a.3.3 0 1 1 .6 0v3.95a.3.3 0 0 1-.3.3zM62.231 84.908a.3.3 0 0 1-.3-.3v-4.645a.3.3 0 1 1 .6 0v4.645a.3.3 0 0 1-.3.3z"/><path fill="#fddbbc" d="M61.418 44a5.29 5.29 0 0 0-.36-.009c-.965-.047-.883.317-.839-.28.078-1.06-.427-5.34-.427-5.557 0-4.456-4.653-8.091-10.466-8.292v-.013c-.039.001-.077.006-.117.007-.039-.001-.077-.006-.117-.007v.013c-5.814.202-10.466 3.836-10.466 8.292 0 .217-.148 4.517-.07 5.578.044.597-.231.212-1.196.259A5.29 5.29 0 0 0 37 44c-1.058.071-1.914.744-2.097 1.578.13.079.611 3.731 1.391 5.17.436.803 1.116.915 1.815 1.434.387.287.462.612.568 1.041.392 1.59 1.481 2.942 2.674 4.096.589.57 4.499 4.738 7.858 4.527 3.375-.127 7.269-3.957 7.858-4.527 1.193-1.154 2.282-2.506 2.674-4.096.106-.43.18-.754.568-1.041.699-.519 1.379-.63 1.815-1.434.78-1.439 1.262-5.091 1.391-5.17-.183-.834-1.039-1.508-2.097-1.578z"/><path fill="#512c2b" d="M49.269 51.059c.683 0 1.345-.298 1.771-.797a.12.12 0 0 0-.182-.157c-.347.397-.927.625-1.589.625-.663 0-1.242-.228-1.589-.625a.121.121 0 0 0-.169-.012.12.12 0 0 0-.013.169 2.348 2.348 0 0 0 1.771.797zM47.091 41.833l.433-.832c-1.832-.429-3.941-.361-5.682.179l.546.811c1.431-.472 3.191-.532 4.703-.158zM56.262 41.833l.433-.832c-1.832-.429-3.941-.361-5.682.179l.546.811c1.432-.472 3.192-.532 4.703-.158zM44.454 43.007c-.44 0-.826.291-1.049.731a.593.593 0 0 1 .174-.029c.361 0 .653.327.653.729 0 .403-.293.729-.653.729a.6.6 0 0 1-.323-.099c.154.661.632 1.142 1.199 1.142.691 0 1.252-.717 1.252-1.602-.001-.883-.562-1.601-1.253-1.601zM54.031 43.007c-.376 0-.712.213-.941.548a.596.596 0 0 1 .23-.049c.361 0 .653.327.653.729 0 .403-.293.729-.653.729a.637.637 0 0 1-.539-.318c.016.867.569 1.563 1.25 1.563.691 0 1.252-.717 1.252-1.602-.001-.882-.561-1.6-1.252-1.6zM54.562 52.915a.12.12 0 0 0 .018-.168.12.12 0 0 0-.169-.018c-1.128.899-3.002 1.415-5.141 1.415s-4.013-.516-5.142-1.416a.116.116 0 0 0-.075-.026.121.121 0 0 0-.077.214c1.274 1.041 3.253 1.663 5.293 1.663 2.04-.001 4.018-.622 5.293-1.664zM50.666 58.185c.062 0 .114-.072.114-.157s-.052-.157-.114-.157h-2.571c-.062 0-.114.072-.114.157s.052.157.114.157h2.571z"/><path fill="#472b29" d="M50.321 86.962c-8.906 0-14.653-1.781-21.517-6.428a.501.501 0 0 1-.218-.457c.009-.108.014-.475.021-1.006.033-2.182.1-6.721.582-8.497.654-2.417 1.612-3.362 3.382-4.455.662-.409 1.451-.734 2.345-.969l7.08-2.569c.503-.13.906-.457.963-.757.029-.148.085-.61.153-2.038-1.03-.729-1.869-1.385-2.112-1.623-1.561-1.526-2.454-2.918-2.811-4.381-.109-.447-.156-.602-.382-.771-.207-.156-.414-.271-.61-.382-.483-.272-.982-.555-1.345-1.232-.838-1.564-1.451-4.521-1.451-5.464 0-.036.004-.071.011-.106.235-1.085 1.285-1.903 2.552-1.988a5.09 5.09 0 0 1 .395-.01c.271-.013.501.006.683.031-.036-1.206.036-3.759.068-4.913.008-.289.014-.479.014-.521 0-4.739 4.753-8.624 10.84-8.881a.418.418 0 0 1 .139-.018l.104.5.02-.495a.818.818 0 0 1 .12.009c6.137.217 10.943 4.119 10.943 8.885.003.067.036.357.08.764.196 1.799.401 3.784.345 4.558l-.005.063.239.012.131.006c.11 0 .241 0 .371.01 1.266.085 2.315.903 2.55 1.988.007.035.011.07.011.105 0 1.089-.65 3.97-1.45 5.464-.363.677-.862.959-1.345 1.232-.197.111-.403.226-.611.382-.226.17-.273.326-.376.751-.361 1.482-1.254 2.875-2.815 4.401-.253.248-1.154.982-2.242 1.768-.002.858.075 1.53.213 1.825.141.3.413.684.911.811.353.127 7.499 2.764 8.745 3.291.225.087.428.17.589.239.103.039.211.079.292.103 2.124.642 3.227 1.961 3.689 4.412a.51.51 0 0 1 .008.067s.354 6.927.554 11.152a.5.5 0 0 1-.274.47c-4.043 2.041-11.346 4.373-16.094 4.58a78.634 78.634 0 0 1-3.485.082zM29.595 79.86c7.41 4.964 13.547 6.485 24.167 6.021 4.505-.197 11.397-2.371 15.398-4.33-.194-4.065-.51-10.274-.537-10.789-.396-2.064-1.236-3.077-2.989-3.607a5.867 5.867 0 0 1-.381-.134c-.17-.073-.362-.151-.587-.239-1.238-.523-8.591-3.236-8.665-3.264-.635-.159-1.192-.64-1.52-1.339-.226-.482-.329-1.33-.305-2.519a.498.498 0 0 1 .21-.397c1.217-.867 2.132-1.622 2.33-1.816 1.421-1.39 2.228-2.63 2.538-3.903.114-.472.228-.94.753-1.334.245-.184.487-.322.719-.453.423-.239.729-.412.955-.833.754-1.406 1.309-4.022 1.332-4.936-.163-.618-.838-1.099-1.63-1.152-.106-.008-.212-.006-.324-.008l-.156-.007c-.551-.026-.828-.039-1.042-.283-.196-.224-.174-.484-.153-.735l.011-.128c.054-.749-.213-3.199-.342-4.377a20.732 20.732 0 0 1-.086-.873c0-4.226-4.386-7.69-9.984-7.886a.382.382 0 0 1-.075-.008l-.037.001-.001-.004a.494.494 0 0 1-.086.011c-5.599.196-9.984 3.66-9.984 7.886 0 .043-.005.245-.014.549-.032 1.153-.118 4.215-.057 5.056.012.158.036.487-.209.712-.236.216-.527.171-.762.134-.177-.028-.396-.063-.699-.048-.137 0-.244.001-.348.008-.793.054-1.469.534-1.632 1.152.024.906.617 3.604 1.332 4.936.226.422.532.595.955.833.232.131.474.27.719.453.524.393.638.86.748 1.312.315 1.295 1.122 2.536 2.543 3.926.197.193 1.076.883 2.211 1.676a.498.498 0 0 1 .213.433c-.058 1.301-.12 2.127-.182 2.455-.154.801-.94 1.343-1.652 1.523l-7.076 2.568c-.842.223-1.54.51-2.117.866-1.605.991-2.369 1.747-2.943 3.866-.448 1.655-.517 6.276-.546 8.25-.004.32-.008.584-.013.775z"/><path fill="#895d3d" d="m61.48 48.881-.597-.067.201-1.779-1.011.438-.238-.551 1.486-.644a.3.3 0 0 1 .417.309l-.258 2.294zM37.262 48.539l-.258-2.294a.301.301 0 0 1 .417-.309l1.486.644-.238.551-1.011-.438.201 1.779-.597.067z"/><path fill="#472b29" d="M38.602 52.98h-.004a.2.2 0 0 1-.196-.204l.165-8.647a.2.2 0 0 1 .2-.196h.004a.2.2 0 0 1 .196.204l-.165 8.647a.201.201 0 0 1-.2.196zM59.981 52.98a.2.2 0 0 1-.2-.196l-.164-8.647a.2.2 0 0 1 .196-.204h.004a.2.2 0 0 1 .2.196l.164 8.647a.2.2 0 0 1-.196.204h-.004zM49.321 62.094c-2.123 0-5.698-2.612-5.855-2.728a.25.25 0 1 1 .296-.402c.039.028 3.888 2.833 5.76 2.619 1.915-.217 4.982-2.378 5.013-2.4a.25.25 0 0 1 .289.409c-.13.092-3.202 2.256-5.245 2.489-.084.009-.17.013-.258.013z"/><path fill="#be7841" d="M61.673 30.75c-.075-.565-.683-.48-1.283-.444-1.872.111-2.329-.486-6.15-2.617-3.808-2.124-7.704-1.277-10.301.551-11.945 2.611-4.949 17.971-4.949 17.971s-.044-8.085 3.65-10.543c6.186 3.996 12.088 4.47 15.687 2.094 1.389 3.067 1.354 8.449 1.354 8.449s2.88-4.855 1.085-10.75c-.439-1.445 1.152-2.87.907-4.711z"/><path fill="#472b29" d="m60.125 46.169-.5-.003c0-.052.017-5.064-1.241-8.082-3.925 2.35-9.95 1.536-15.848-2.161-3.471 2.459-3.471 10.164-3.47 10.243l-.5.003c-.002-.336-.001-8.25 3.828-10.754a.25.25 0 0 1 .271-.001c5.901 3.745 11.916 4.547 15.696 2.095a.254.254 0 0 1 .206-.03c.07.021.127.07.158.136 1.419 3.082 1.401 8.333 1.4 8.554z"/></svg>